<svg id="Layer_1" data-name="Layer 1" xmlns="http://www.w3.org/2000/svg" viewBox="0 0 80 50"><defs><style>.cls-1,.cls-2{fill:#fff;}.cls-2{fill-rule:evenodd;}</style></defs><title>PrimeLogo_White</title><path class="cls-1" d="M1.15,29.2A.85.85,0,0,1,.56,29a.79.79,0,0,1-.18-.6V8a.79.79,0,0,1,.18-.6.85.85,0,0,1,.58-.17H3.36a.79.79,0,0,1,.86.67l.22.8A6.79,6.79,0,0,1,6.66,7.27a7.12,7.12,0,0,1,2.66-.52A5.71,5.71,0,0,1,14,8.93a9.19,9.19,0,0,1,1.74,5.89,10.71,10.71,0,0,1-.86,4.45,7,7,0,0,1-2.33,2.93,5.76,5.76,0,0,1-3.38,1,7.19,7.19,0,0,1-2.4-.4,5.76,5.76,0,0,1-1.93-1.1v6.72a.84.84,0,0,1-.17.6.84.84,0,0,1-.6.17Zm6.73-9.36a2.88,2.88,0,0,0,2.53-1.17A6.54,6.54,0,0,0,11.22,15a6.71,6.71,0,0,0-.8-3.71,2.87,2.87,0,0,0-2.55-1.17,5.85,5.85,0,0,0-3,.83V19A5.64,5.64,0,0,0,7.87,19.85Z"/><path class="cls-1" d="M19.54,22.88a.66.66,0,0,1-.77-.77V8a.79.79,0,0,1,.18-.6.85.85,0,0,1,.58-.17h2.21a.79.79,0,0,1,.86.67L23,9.54a8.77,8.77,0,0,1,2.32-1.92,5,5,0,0,1,2.32-.57h.43a.9.9,0,0,1,.61.17.79.79,0,0,1,.18.6V10.4a.84.84,0,0,1-.17.58.79.79,0,0,1-.6.18l-.55,0q-.34,0-.86,0a9.17,9.17,0,0,0-1.72.2,8.47,8.47,0,0,0-1.72.51V22.12a.85.85,0,0,1-.17.58.79.79,0,0,1-.6.18Z"/><path class="cls-1" d="M33.29,4.79a2.67,2.67,0,0,1-1.87-.64,2.25,2.25,0,0,1-.71-1.75A2.25,2.25,0,0,1,31.42.64a3,3,0,0,1,3.75,0,2.25,2.25,0,0,1,.71,1.75,2.25,2.25,0,0,1-.71,1.75A2.67,2.67,0,0,1,33.29,4.79Zm-1.47,18.1a.66.66,0,0,1-.77-.77V8a.79.79,0,0,1,.18-.6.85.85,0,0,1,.58-.17h2.95a.84.84,0,0,1,.6.17.84.84,0,0,1,.17.6V22.12a.84.84,0,0,1-.17.58.79.79,0,0,1-.6.18Z"/><path class="cls-1" d="M40.1,22.88a.66.66,0,0,1-.77-.77V8a.79.79,0,0,1,.18-.6.85.85,0,0,1,.58-.17h2.21a.79.79,0,0,1,.86.67l.25.83a13.26,13.26,0,0,1,2.93-1.52A8.27,8.27,0,0,1,49,6.75a4.13,4.13,0,0,1,3.9,2,12.57,12.57,0,0,1,2.95-1.5,9,9,0,0,1,2.86-.46,4.48,4.48,0,0,1,3.33,1.2,4.55,4.55,0,0,1,1.18,3.34V22.12a.85.85,0,0,1-.17.58.79.79,0,0,1-.6.18H59.54a.66.66,0,0,1-.77-.77V12.27q0-2.09-1.87-2.09a7.79,7.79,0,0,0-3.35.8V22.12a.84.84,0,0,1-.17.58.79.79,0,0,1-.6.18H49.84a.66.66,0,0,1-.77-.77V12.27q0-2.09-1.87-2.09a7.49,7.49,0,0,0-3.38.83v11.1a.85.85,0,0,1-.17.58.79.79,0,0,1-.6.18Z"/><path class="cls-1" d="M73.92,23.34a7.82,7.82,0,0,1-5.85-2.09,8.19,8.19,0,0,1-2-6A8.89,8.89,0,0,1,68.11,9a7.5,7.5,0,0,1,5.81-2.27,6.66,6.66,0,0,1,4.47,1.38A4.6,4.6,0,0,1,80,11.81a3.94,3.94,0,0,1-1.74,3.48,9.11,9.11,0,0,1-5.11,1.18,12.11,12.11,0,0,1-3-.34,4.16,4.16,0,0,0,1.24,2.94,4.9,4.9,0,0,0,3.21.89,12.79,12.79,0,0,0,1.67-.11,20.93,20.93,0,0,0,2.26-.48l.18,0,.15,0q.52,0,.52.71v1.41a1.27,1.27,0,0,1-.14.69,1.13,1.13,0,0,1-.54.35A13.19,13.19,0,0,1,73.92,23.34Zm-1-9.63a4.18,4.18,0,0,0,2.27-.48,1.64,1.64,0,0,0,.71-1.46q0-1.93-2.3-1.93-2.95,0-3.41,3.62A14,14,0,0,0,72.9,13.71Z"/><path class="cls-2" d="M72.31,40.11C63.55,46.57,50.85,50,39.92,50A58.66,58.66,0,0,1,.35,34.93c-.82-.74-.09-1.75.9-1.18A79.72,79.72,0,0,0,40.84,44.24,78.85,78.85,0,0,0,71,38.07C72.52,37.44,73.76,39,72.31,40.11Z"/><path class="cls-2" d="M76,36c-1.12-1.43-7.4-.68-10.23-.34-.86.1-1-.64-.22-1.18,5-3.52,13.23-2.5,14.18-1.32s-.25,9.41-5,13.34c-.72.6-1.41.28-1.09-.52C74.71,43.29,77.08,37.39,76,36Z"/></svg>